<svg version="1.2" xmlns="http://www.w3.org/2000/svg" viewBox="0 0 1516 384" width="1516" height="384">
	<title>sfr_axios_solo_logo-svg</title>
	<style>
		.s0 { fill: #ffffff } 
		.s1 { fill: #0a99e0 } 
	</style>
	<g id="Layer">
		<path id="Layer" class="s0" d="m710.2 11.8h89.5v360.2h-89.5z"/>
		<path id="Layer" fill-rule="evenodd" class="s0" d="m1020.5 383.6c-107.5 0-194.4-85.7-194.4-191.7 0-106 86.9-191.7 194.4-191.7 107.5 0 194.4 85.7 194.4 191.7 0 106-86.9 191.7-194.4 191.7zm99.1-191.7c0-57.5-44-104.1-98.4-104.1-54.5 0-98.5 46.6-98.5 104.1 0 57.5 44 104 98.5 104 54.4 0 98.4-46.5 98.4-104z"/>
		<path id="Layer" class="s0" d="m1225.2 262.4l81.8-19.3c5.8 43.2 37.3 58.6 70.1 58.6 32.9 0 44.5-19.3 44.5-34.8 0-12.2-7.1-24.4-30.9-28.9l-50.3-9.7c-59.8-11.6-102.3-49-102.3-107 0-68.9 62.4-117.2 133.9-117.2 91.4 0 128.7 56.7 135.2 105l-79.2 23.2c-4.5-29.6-22.5-50.9-55.4-50.9-28.3 0-41.8 18.7-41.8 33.5 0 12.2 5.8 25.8 27 29.6l52.2 9.7c68.2 13.5 105.5 54.8 105.5 108.9 0 58.6-50.8 115.3-137.7 115.3-92.1 0.6-140.4-47-152.6-116z"/>
		<path id="Layer" class="s1" d="m96.7 371.3h-95.9l158.4-359.5h96.5z"/>
		<path id="Layer" class="s0" d="m568.6 187.7l119.7-176.5h-109.4l-64.4 106.9-62.4-106.9h-110.8l120.4 176.5-77.9 114-128.1-289.9h-96.5l159.6 359.5h120.4l75.3-114 74.7 114h98.5z"/>
	</g>
</svg>